<svg xmlns="http://www.w3.org/2000/svg" version="1.1" xmlns:xlink="http://www.w3.org/1999/xlink" xmlns:svgjs="http://svgjs.dev/svgjs" width="1000" height="164" viewBox="0 0 1000 164"><g transform="matrix(1,0,0,1,-0.6060604633927369,0.005711158737327082)"><svg viewBox="0 0 396 65" data-background-color="#ffffff" preserveAspectRatio="xMidYMid meet" height="164" width="1000" xmlns="http://www.w3.org/2000/svg" xmlns:xlink="http://www.w3.org/1999/xlink"><g id="tight-bounds" transform="matrix(1,0,0,1,0.24000005649645573,-0.0022635690117454033)"><svg viewBox="0 0 395.52 65.00452713802348" height="65.00452713802348" width="395.52"><g><svg viewBox="0 0 513.7512463691224 84.43607614480939" height="65.00452713802348" width="395.52"><g><rect width="3.5317789340091874" height="84.43607614480939" x="105.45397284346618" y="0" fill="#000000" opacity="1" stroke-width="0" stroke="transparent" fill-opacity="1" class="rect-o-0" data-fill-palette-color="primary" rx="1%" id="o-0" data-palette-color="#000000"></rect></g><g transform="matrix(1,0,0,1,118.23124636912245,0.21003999040996746)"><svg viewBox="0 0 395.52 84.01599616398946" height="84.01599616398946" width="395.52"><g><svg viewBox="0 0 395.52 84.01599616398946" height="84.01599616398946" width="395.52"><g><svg viewBox="0 0 395.52 84.01599616398946" height="84.01599616398946" width="395.52"><g transform="matrix(1,0,0,1,0,0)"><svg width="395.52" viewBox="1.5499992370605469 -40.30000305175781 418.45001220703125 85.60001373291016" height="84.01599616398946" data-palette-color="#000000"><svg></svg><svg></svg><g class="undefined-text-0" data-fill-palette-color="primary" id="text-0"><path xmlns="http://www.w3.org/2000/svg" d="M37.1-40.15v12.75l-2.75 1.1-6.35-9.15h-11.85v13.5h5.95l3.65-5.6h2.8v14.65l-3.25 1.6-3.25-6.8h-5.9v13l8.7 1.9-1.65 3.25h-20.8v-2.8l4.7-3.7v-27.95l-5.55-1.65 1.65-3.25h30.3zM81.7-3.25l-1.6 3.25h-10.85l-9.65-17.3-2.2-1.35 1.25-2.45h2.3c1.8 0 3.217-0.55 4.25-1.65 1.033-1.1 1.55-2.65 1.55-4.65v0c0-2.333-0.623-4.243-1.87-5.73-1.253-1.48-3.08-2.22-5.48-2.22v0c-1.5 0-2.9 0.467-4.2 1.4v0 29.15l5.55 1.6-1.6 3.25h-17.7v-2.8l4.7-3.95v-27.75l-5.55-1.55 1.65-3.25h8.3c2.9 0 5.75-0.1 8.55-0.3v0c2-0.133 3.5-0.2 4.5-0.2v0c2.567 0 4.84 0.457 6.82 1.37 1.987 0.92 3.523 2.163 4.61 3.73 1.08 1.567 1.62 3.317 1.62 5.25v0c0 2.333-1.033 4.5-3.1 6.5-2.067 2-4.583 3.5-7.55 4.5v0l4 1.15 6.5 11.6zM127.45-3.25l-1.65 3.25h-18.6v-2.8l5.45-3.25-3.05-7.45h-15.45l-2.75 6.7 7.65 3.55-1.6 3.25h-16.15v-2.8l5.4-4.05 12.8-30.85 8.65-2.55 14.2 34.45zM108.05-17.35l-6.1-15-6.2 15zM152.8-40.3c1.933 0 4.193 0.25 6.78 0.75 2.58 0.5 4.47 1.033 5.67 1.6v0 10.65h-4.75c-2.567-4.833-6.1-7.25-10.6-7.25v0c-1.833 0-3.517 0.583-5.05 1.75-1.533 1.167-2.743 2.767-3.63 4.8-0.88 2.033-1.32 4.317-1.32 6.85v0c0 2.867 0.44 5.49 1.32 7.87 0.887 2.387 2.23 4.287 4.03 5.7 1.8 1.42 4.033 2.13 6.7 2.13v0c3.033 0 7.35-1.667 12.95-5v0l2 3.2-9.2 7.15c-1.467 0.433-2.873 0.727-4.22 0.88-1.353 0.147-2.797 0.22-4.33 0.22v0c-3.733 0-7.05-0.85-9.95-2.55-2.9-1.7-5.15-4.043-6.75-7.03-1.6-2.98-2.4-6.37-2.4-10.17v0c0-3.9 1.2-7.51 3.6-10.83 2.4-3.313 5.383-5.93 8.95-7.85 3.567-1.913 6.967-2.87 10.2-2.87zM209-40.2v13.75l-2.75 1.1-7.05-10.15h-4.65v30.8l5.6 1.45-1.65 3.25h-17.7v-2.8l4.7-3.7v-29h-4.45l-7.05 10.15-2.75-1.1v-13.75l3.6 0.9h30.55zM251.65-3.25l-1.65 3.25h-18.6v-2.8l5.45-3.25-3.05-7.45h-15.45l-2.75 6.7 7.65 3.55-1.6 3.25h-16.15v-2.8l5.4-4.05 12.8-30.85 8.65-2.55 14.2 34.45zM232.25-17.35l-6.1-15-6.2 15zM289.25 0.9l-3.6-0.9h-31.9v-2.8l4.7-3.7v-28.1l-5.55-1.45 1.65-3.25h17.7v2.8l-4.75 3.7v29h11.25l7.75-11.2 2.75 1.15z" fill="#000000" fill-rule="nonzero" stroke="none" stroke-width="1" stroke-linecap="butt" stroke-linejoin="miter" stroke-miterlimit="10" stroke-dasharray="" stroke-dashoffset="0" font-family="none" font-weight="none" font-size="none" text-anchor="none" style="mix-blend-mode: normal" data-fill-palette-color="primary" opacity="1"></path><path xmlns="http://www.w3.org/2000/svg" d="M25.65 4c1.933 0 4.193 0.25 6.78 0.75 2.58 0.5 4.47 1.033 5.67 1.6v0 10.65h-4.75c-2.567-4.833-6.1-7.25-10.6-7.25v0c-1.833 0-3.517 0.583-5.05 1.75-1.533 1.167-2.74 2.767-3.62 4.8-0.887 2.033-1.33 4.317-1.33 6.85v0c0 2.867 0.443 5.49 1.33 7.87 0.88 2.387 2.22 4.287 4.02 5.7 1.8 1.42 4.033 2.13 6.7 2.13v0c3.033 0 7.35-1.667 12.95-5v0l2 3.2-9.2 7.15c-1.467 0.433-2.873 0.727-4.22 0.88-1.353 0.147-2.797 0.22-4.33 0.22v0c-3.733 0-7.05-0.85-9.95-2.55-2.9-1.7-5.15-4.043-6.75-7.03-1.6-2.98-2.4-6.37-2.4-10.17v0c0-3.9 1.2-7.51 3.6-10.83 2.4-3.313 5.383-5.93 8.95-7.85 3.567-1.913 6.967-2.87 10.2-2.87zM67.65 4c3.833 0 7.217 0.85 10.15 2.55 2.933 1.7 5.2 4.05 6.8 7.05 1.6 3 2.4 6.4 2.4 10.2v0c0 3.9-1.217 7.5-3.65 10.8-2.433 3.3-5.44 5.907-9.02 7.82-3.587 1.92-6.997 2.88-10.23 2.88v0c-3.833 0-7.207-0.843-10.12-2.53-2.92-1.68-5.187-4.02-6.8-7.02-1.62-3-2.43-6.4-2.43-10.2v0c0-3.9 1.21-7.51 3.63-10.83 2.413-3.313 5.42-5.93 9.02-7.85 3.6-1.913 7.017-2.87 10.25-2.87zM64.75 9.75c-1.867 0-3.573 0.583-5.12 1.75-1.553 1.167-2.78 2.767-3.68 4.8-0.9 2.033-1.35 4.317-1.35 6.85v0c0 3 0.46 5.74 1.38 8.22 0.913 2.487 2.297 4.47 4.15 5.95 1.847 1.487 4.137 2.23 6.87 2.23v0c1.833 0 3.527-0.583 5.08-1.75 1.547-1.167 2.77-2.767 3.67-4.8 0.9-2.033 1.35-4.317 1.35-6.85v0c0-3.033-0.45-5.783-1.35-8.25-0.9-2.467-2.273-4.443-4.12-5.93-1.853-1.48-4.147-2.22-6.88-2.22zM133.75 7.8l-4.75 4v32.5h-4.3l-23.45-26.75v20.85l7.1 2.65-1.6 3.25h-14.5v-2.8l4.7-3.95v-26.25l-5.55-3.05 1.65-3.25h8.8l22.85 26v-20.15l-7.1-2.6 1.65-3.25h14.5zM178.7 7.8l-4.75 4v32.5h-4.3l-23.45-26.75v20.85l7.1 2.65-1.6 3.25h-14.5v-2.8l4.7-3.95v-26.25l-5.55-3.05 1.65-3.25h8.8l22.85 26v-20.15l-7.1-2.6 1.65-3.25h14.5zM217.35 45.25l-3.6-0.9h-31.6v-2.8l4.7-3.7v-27.95l-5.55-1.65 1.65-3.25h30.3l3.6-0.9v12.75l-2.75 1.1-6.15-9.15h-12.05v13.5h5.95l3.65-5.6h2.8v14.55l-3.25 1.65-3.25-6.75h-5.9v14.35h11.65l7.05-10.2 2.75 1.15zM246.4 4c1.933 0 4.193 0.25 6.78 0.75 2.58 0.5 4.47 1.033 5.67 1.6v0 10.65h-4.75c-2.567-4.833-6.1-7.25-10.6-7.25v0c-1.833 0-3.517 0.583-5.05 1.75-1.533 1.167-2.743 2.767-3.63 4.8-0.88 2.033-1.32 4.317-1.32 6.85v0c0 2.867 0.44 5.49 1.32 7.87 0.887 2.387 2.23 4.287 4.03 5.7 1.8 1.42 4.033 2.13 6.7 2.13v0c3.033 0 7.35-1.667 12.95-5v0l2 3.2-9.2 7.15c-1.467 0.433-2.877 0.727-4.23 0.88-1.347 0.147-2.787 0.22-4.32 0.22v0c-3.733 0-7.05-0.85-9.95-2.55-2.9-1.7-5.15-4.043-6.75-7.03-1.6-2.98-2.4-6.37-2.4-10.17v0c0-3.9 1.2-7.51 3.6-10.83 2.4-3.313 5.383-5.93 8.95-7.85 3.567-1.913 6.967-2.87 10.2-2.87zM302.6 4.1v13.75l-2.75 1.1-7.05-10.15h-4.65v30.8l5.6 1.45-1.65 3.25h-17.7v-2.8l4.7-3.7v-29h-4.45l-7.05 10.15-2.75-1.1v-13.75l3.6 0.9h30.55zM326.55 41l-1.6 3.25h-17.7v-2.8l4.7-3.95v-27.7l-5.55-1.6 1.65-3.25h17.7v2.8l-4.75 4v27.7zM353.9 4c3.833 0 7.217 0.85 10.15 2.55 2.933 1.7 5.2 4.05 6.8 7.05 1.6 3 2.4 6.4 2.4 10.2v0c0 3.9-1.217 7.5-3.65 10.8-2.433 3.3-5.44 5.907-9.02 7.82-3.587 1.92-6.997 2.88-10.23 2.88v0c-3.833 0-7.207-0.843-10.12-2.53-2.92-1.68-5.187-4.02-6.8-7.02-1.62-3-2.43-6.4-2.43-10.2v0c0-3.9 1.21-7.51 3.63-10.83 2.413-3.313 5.42-5.93 9.02-7.85 3.6-1.913 7.017-2.87 10.25-2.87zM351 9.75c-1.867 0-3.573 0.583-5.12 1.75-1.553 1.167-2.78 2.767-3.68 4.8-0.9 2.033-1.35 4.317-1.35 6.85v0c0 3 0.46 5.74 1.38 8.22 0.913 2.487 2.297 4.47 4.15 5.95 1.847 1.487 4.137 2.23 6.87 2.23v0c1.833 0 3.527-0.583 5.08-1.75 1.547-1.167 2.77-2.767 3.67-4.8 0.9-2.033 1.35-4.317 1.35-6.85v0c0-3.033-0.45-5.783-1.35-8.25-0.9-2.467-2.273-4.443-4.12-5.93-1.853-1.48-4.147-2.22-6.88-2.22zM420 7.8l-4.75 4v32.5h-4.3l-23.45-26.75v20.85l7.1 2.65-1.6 3.25h-14.5v-2.8l4.7-3.95v-26.25l-5.55-3.05 1.65-3.25h8.8l22.85 26v-20.15l-7.1-2.6 1.65-3.25h14.5z" fill="#000000" fill-rule="nonzero" stroke="none" stroke-width="1" stroke-linecap="butt" stroke-linejoin="miter" stroke-miterlimit="10" stroke-dasharray="" stroke-dashoffset="0" font-family="none" font-weight="none" font-size="none" text-anchor="none" style="mix-blend-mode: normal" data-fill-palette-color="primary" opacity="1"></path></g></svg></g></svg></g></svg></g></svg></g><g transform="matrix(1,0,0,1,0,0.21003999040996746)"><svg viewBox="0 0 96.20847825181909 84.01599616398946" height="84.01599616398946" width="96.20847825181909"><g><svg xmlns="http://www.w3.org/2000/svg" xmlns:xlink="http://www.w3.org/1999/xlink" version="1.1" x="0" y="0" viewBox="4.999750137329102 10.694000244140625 90.02024841308594 78.61199951171875" enable-background="new 0 0 100 100" xml:space="preserve" height="84.01599616398946" width="96.20847825181909" class="icon-icon-0" data-fill-palette-color="accent" id="icon-0"><path d="M84.04 67.153C84.04 67.153 84.04 67.153 84.04 67.153c0-0.001 0-0.001-0.001-0.001L52.165 11.944c-0.447-0.773-1.272-1.25-2.165-1.25s-1.718 0.477-2.165 1.25L15.961 67.152c0 0 0 0-0.001 0.001s0 0.001 0 0.001L5.335 85.556c-0.447 0.773-0.447 1.727 0 2.5s1.272 1.25 2.165 1.25h85c0.006 0 0.013 0 0.02 0 1.381 0 2.5-1.119 2.5-2.5 0-0.562-0.185-1.08-0.498-1.497L84.04 67.153zM77.545 65.903h-12.59L71.25 55 77.545 65.903zM66.92 47.5H54.33l6.295-10.903L66.92 47.5zM50 45l-6.295-10.903h12.59L50 45zM50 18.194l6.295 10.903h-12.59L50 18.194zM39.375 36.597L45.67 47.5H33.08L39.375 36.597zM28.75 55l6.295 10.903h-12.59L28.75 55zM11.83 84.306l6.295-10.903 6.295 10.903H11.83zM22.455 70.903h12.59L28.75 81.806 22.455 70.903zM33.08 84.306l6.295-10.903 6.295 10.903H33.08zM41.54 67.154C41.54 67.153 41.54 67.153 41.54 67.154c-0.001-0.001-0.001-0.001-0.001-0.002L33.08 52.5h33.84l-8.459 14.652c0 0 0 0-0.001 0.001s0 0.001 0 0.001L50 81.806 41.54 67.154zM54.33 84.306l6.295-10.903 6.295 10.903H54.33zM64.955 70.903h12.59L71.25 81.806 64.955 70.903zM75.58 84.306l6.295-10.903 6.295 10.903H75.58z" fill="#000000" data-fill-palette-color="accent"></path></svg></g></svg></g></svg></g><defs></defs></svg><rect width="395.52" height="65.00452713802348" fill="none" stroke="none" visibility="hidden"></rect></g></svg></g></svg>